{"title":"Janbaaz 1986 DvDrip 1CD X264 AAC [RRG DBB][DADA] ","uid":8263323,"size":1249776498,"categoryP":"video","categoryS":"movies","magnet":"?xt=urn:btih:d3c6fafc92f989f2afc054a5358e204b5b8df7b8&amp;dn=Janbaaz+1986+DvDrip+1CD+X264+AAC+%5BRRG+DBB%5D%5BDADA%5D+&amp;tr=udp%3A%2F%2Ftracker.openbittorrent.com%3A80&amp;tr=udp%3A%2F%2Fopen.demonii.com%3A1337&amp;tr=udp%3A%2F%2Ftracker.coppersurfer.tk%3A6969&amp;tr=udp%3A%2F%2Fexodus.desync.com%3A6969","seeders":1,"leechers":2,"uploader":"brego45","files":1,"time":1363393608,"description":"\nJanbaaz 1986 DvDrip 1CD X264 AAC [RRG DBB][DADA] \n\n\n-: Cover :- \n &lt;a href=&quot;\nhttp://desibbrg.net/imghost/show.php?img=430136_Janbaaz.1986.DvDrip.1CD.X264.AAC.RRG.DADA..jpg.html&quot; rel=&quot;nofollow&quot; target=&quot;_NEW&quot;&gt;\nhttp://desibbrg.net/imghost/show.php?img=430136_Janbaaz.1986.DvDrip.1CD.X264.AAC.RRG.DADA..jpg.html&lt;/a&gt;\n\n\n-: Screens :-\n &lt;a href=&quot;\nhttp://desibbrg.net/imghost/show.php?img=430140_Janbaaz.1986.DvDrip.1CD.X264.AAC.RRG.DADA.DBBIANS.Comthumbs.jpg.html&quot; rel=&quot;nofollow&quot; target=&quot;_NEW&quot;&gt;\nhttp://desibbrg.net/imghost/show.php?img=430140_Janbaaz.1986.DvDrip.1CD.X264.AAC.RRG.DADA.DBBIANS.Comthumbs.jpg.html&lt;/a&gt;\n \n\n-: Info :-  \n\n\nGeneral\n\nFormat                           :  MP4 Video\nFile size                        : 1.16 GiB\nDuration                         : 2h 55mn\nOverall bit rate                 : 951 Kbps\n\nVideo\nFormat                           : AVC\nFormat/Info                      : Advanced Video Codec\nFormat profile                   : &lt;a class=&quot;__cf_email__&quot; href=&quot;/cdn-cgi/l/email-protection&quot; data-cfemail=&quot;90ddf1f9fed0dca3bea0&quot;&gt;[email&amp;#160;protected]&lt;/a&gt;&lt;script cf-hash='f9e31' type=&quot;text/javascript&quot;&gt;\n/* &lt;![CDATA[ */!function(){try{var t=&quot;currentScript&quot;in document?document.currentScript:function(){for(var t=document.getElementsByTagName(&quot;script&quot;),e=t.length;e--;)if(t[e].getAttribute(&quot;cf-hash&quot;))return t[e]}();if(t&amp;&amp;t.previousSibling){var e,r,n,i,c=t.previousSibling,a=c.getAttribute(&quot;data-cfemail&quot;);if(a){for(e=&quot;&quot;,r=parseInt(a.substr(0,2),16),n=2;a.length-n;n+=2)i=parseInt(a.substr(n,2),16)^r,e+=String.fromCharCode(i);e=document.createTextNode(e),c.parentNode.replaceChild(e,c)}}}catch(u){}}();/* ]]&gt; */&lt;/script&gt;\nFormat settings, CABAC           : Yes\nFormat settings, ReFrames        : 3 frames\nDuration                         : 2h 55mn\nBit rate                         : 815 Kbps\nWidth                            : 854 pixels\nHeight                           : 480 pixels\nDisplay aspect ratio             : 16:9\nFrame rate mode                  : Constant\nFrame rate                       : 25.000 fps\nColor space                      : YUV\nChroma subsampling               : 4:2:0\nBit depth                        : 8 bits\nScan type                        : Progressive\nBits/(Pixel*Frame)               : 0.079\nStream size                      : 1 020 MiB (86%)\n\nAudio\nFormat                           : AAC\nFormat/Info                      : Advanced Audio Codec\nFormat version                   : Version 4\nFormat profile                   : LC\nFormat settings, SBR             : No\nDuration                         : 2h 55mn\nBit rate                         : 129 Kbps\nChannel(s)                       : 2 channels\nChannel positions                : Front: L R\nSampling rate                    : 44.1 KHz\nBit depth                        : 16 bits\nStream size                      : 161 MiB (14%)\n\n\n &lt;a href=&quot;\nhttp://www.imdb.com/title/tt0091284&quot; rel=&quot;nofollow&quot; target=&quot;_NEW&quot;&gt;\nhttp://www.imdb.com/title/tt0091284&lt;/a&gt;\n    Genres:\nIndian Cinema, Drama, Romance\n    Language:\nHindi\n\n    Running time:\n2:55:10\n    Partner rating: \nGREEN\n    Released:\nApr 16, 1986\n\n\nCast &amp; Crew\nCast\n\n    Feroz Khan\n    Anil Kapoor\n    Dimple Kapadia\n    Sridevi\n    Amrish Puri\n    Shakti Kapoor\n    Jagdeep\n    Raza Murad.\n\nDirectors\n\n    Feroz Khan\n\nProducers\n\n    Feroz Khan\n\nWriters\n\n    K.K. Shukla.\n\nSuper hit movie Janbaaz (1986) Synopsis : Rana Vikram Singh lives in a spacious farmhouse with his wife, Laxmi, and two sons. His elder son, Rajesh, is a dedicated police inspector; and his second son, Amar, is a slacker, womanizer, and alcoholic. When an orphaned young woman, Reshma, comes to live with them, Amar gets intimate with her. When Rana comes to know of Amar's interest in Reshma, he warns him that Reshma is not suitable for their family. But Amar maintains an interest and is jealous to see Reshma in the company of Vikas, an employee at the farmhouse. A fight ensues between Vikas and Amar, and Vikas is killed. Amar is now on the run, and Inspector Rajesh has been assigned the task of apprehending him. Only the future will tell if Rajesh will actually apprehend his younger brother, or will he be asked to do otherwise by his parents? \n","torrent":{"xt":"urn:btih:d3c6fafc92f989f2afc054a5358e204b5b8df7b8","amp;dn":"Janbaaz+1986+DvDrip+1CD+X264+AAC+%5BRRG+DBB%5D%5BDADA%5D+","amp;tr":["udp%3A%2F%2Ftracker.openbittorrent.com%3A80","udp%3A%2F%2Fopen.demonii.com%3A1337","udp%3A%2F%2Ftracker.coppersurfer.tk%3A6969","udp%3A%2F%2Fexodus.desync.com%3A6969"],"infoHash":"d3c6fafc92f989f2afc054a5358e204b5b8df7b8","infoHashBuffer":{"type":"Buffer","data":[211,198,250,252,146,249,137,242,175,192,84,165,53,142,32,75,91,141,247,184]},"announce":[],"urlList":[]}}